<svg width="19" height="20" viewBox="0 0 19 20" fill="none" xmlns="http://www.w3.org/2000/svg">
<path d="M15.0418 17.1263H6.3335V6.04297H15.0418M15.0418 4.45964H6.3335C5.91357 4.45964 5.51084 4.62645 5.21391 4.92338C4.91698 5.22032 4.75016 5.62304 4.75016 6.04297V17.1263C4.75016 17.5462 4.91698 17.949 5.21391 18.2459C5.51084 18.5428 5.91357 18.7096 6.3335 18.7096H15.0418C15.4618 18.7096 15.8645 18.5428 16.1614 18.2459C16.4583 17.949 16.6252 17.5462 16.6252 17.1263V6.04297C16.6252 5.62304 16.4583 5.22032 16.1614 4.92338C15.8645 4.62645 15.4618 4.45964 15.0418 4.45964ZM12.6668 1.29297H3.16683C2.7469 1.29297 2.34418 1.45978 2.04724 1.75672C1.75031 2.05365 1.5835 2.45638 1.5835 2.8763V13.9596H3.16683V2.8763H12.6668V1.29297Z" fill="#969696"/>
</svg>
