<svg width="26" height="26" viewBox="0 0 26 26" fill="none" xmlns="http://www.w3.org/2000/svg">
<circle cx="13" cy="13" r="12" fill="#4B8C9A" stroke="#FAFAFA" stroke-width="2"/>
<mask id="mask0_3062_3054" style="mask-type:luminance" maskUnits="userSpaceOnUse" x="0" y="0" width="26" height="17">
<path d="M0.625977 0H25.6307V16.6701H0.625977V0Z" fill="white"/>
</mask>
<g mask="url(#mask0_3062_3054)">
<path d="M2.28112 15.2575C2.04852 14.3451 1.91615 13.3996 1.91615 12.422C1.91615 6.2526 6.94054 1.22726 13.1099 1.22726C19.2793 1.22726 24.3037 6.2526 24.3037 12.422C24.3037 13.3996 24.1713 14.3451 23.9227 15.2405L20.2579 11.3933L18.4501 13.3004L13.1099 7.67841L7.75367 13.3004L5.94588 11.3933L2.28112 15.2575ZM1.30252 16.3023C1.33562 16.4186 1.36871 16.534 1.4018 16.6342L5.53175 14.2619L9.37899 15.9705L8.31719 14.3782L11.3352 11.659L13.0939 13.3004L14.0384 12.422L21.037 15.8211L19.6774 14.4283L20.9377 13.8478L24.8351 16.551C24.8682 16.4678 24.8843 16.3855 24.9173 16.3184C25.3154 15.1082 25.548 13.7977 25.548 12.4381C25.548 5.57278 19.9752 0 13.1099 0C6.24466 0 0.671875 5.58885 0.671875 12.4381C0.671875 13.7816 0.887449 15.0751 1.30252 16.3023Z" fill="#FAFAFA"/>
</g>
</svg>
